<svg width="133" height="47" viewBox="0 0 133 47" fill="none" xmlns="http://www.w3.org/2000/svg">
<path opacity="0.2" d="M132.67 19.1056L127.448 26.45L124.52 22.4454L126.961 19.1056H132.67Z" fill="white"/>
<path opacity="0.2" d="M132.999 36.6427H127.584L124.52 32.5774L127.362 28.8065L132.999 36.6427Z" fill="white"/>
<path d="M32.3796 20.9322C31.685 20.5184 30.8228 20.3124 29.7949 20.3124C28.7111 20.3124 27.767 20.5478 26.9607 21.0153C26.1562 21.4845 25.5366 22.1528 25.1073 23.0202C24.945 23.3475 24.8141 23.6972 24.7129 24.0677L34.4389 24.04C34.3359 23.5673 34.1928 23.1362 34.0043 22.7519C33.6152 21.952 33.0742 21.346 32.3796 20.9322Z" fill="white"/>
<path d="M51.3177 29.3103L56.2147 16.6748H56.9774V1.71405C56.9774 0.766995 56.2043 0 55.2496 0H1.72775C0.773125 0 0 0.766995 0 1.71405V21.4516L10.8098 7.58165H18.7941L7.70682 21.4291L19.2094 36.6444H11.3386L0 21.4516V44.5584C0 45.5055 0.773125 46.2725 1.72775 46.2725H55.2461C56.2008 46.2725 56.9739 45.5055 56.9739 44.5584V28.1399L53.2112 36.6444H49.2933L40.4206 16.6748H46.4224L51.3177 29.3103ZM39.6283 26.8656C39.6004 27.2378 39.5306 27.6447 39.4206 28.0845L24.7121 28.1191C24.822 28.526 24.9669 28.9069 25.1484 29.2618C25.6074 30.1587 26.267 30.8408 27.1274 31.31C27.9878 31.7792 28.9878 32.0112 30.1274 32.0112C31.1554 32.0112 32.0856 31.8467 32.9198 31.5161C33.754 31.1854 34.4747 30.6608 35.0873 29.944L38.3369 33.1695C37.3089 34.3261 36.1013 35.1952 34.7121 35.7735C33.3212 36.3518 31.8081 36.6426 30.1693 36.6426C28.0576 36.6426 26.1746 36.1873 24.5236 35.2783C22.8709 34.3693 21.5707 33.1297 20.6283 31.5576C19.6824 29.9873 19.2112 28.1953 19.2112 26.1834C19.2112 24.1993 19.6754 22.4212 20.6074 20.8508C21.5375 19.2788 22.8081 18.0391 24.4206 17.1301C26.0314 16.2194 27.836 15.7658 29.8377 15.7658C31.726 15.7658 33.4206 16.1935 34.9215 17.047C36.4206 17.9023 37.5882 19.0866 38.4206 20.6015C39.2548 22.1165 39.6702 23.8409 39.6702 25.7696C39.6702 26.128 39.6562 26.4934 39.6283 26.8656Z" fill="white"/>
<path d="M74.9206 24.3794L63.9869 7.02588H59.9102V36.6426H65.685V18.955L72.9049 30.5759H76.8962L84.1161 19.0139V36.6426H89.891V7.02588H85.8142L74.9206 24.3794Z" fill="white"/>
<path d="M106.824 18.7438L106.723 27.5288C106.723 28.8862 106.307 30.0115 105.478 30.9067C104.648 31.8018 103.562 32.2485 102.22 32.2485C101.367 32.2485 100.599 32.0442 99.9164 31.6321C99.2322 31.22 98.7017 30.6643 98.3247 29.9613C97.946 29.2601 97.7575 28.4377 97.7575 27.4924C97.7575 26.5748 97.946 25.7628 98.3247 25.0616C98.7017 24.3586 99.227 23.8029 99.8972 23.3908C100.567 22.9805 101.344 22.7727 102.22 22.7727C103.124 22.7727 103.904 22.9735 104.564 23.3718C104.698 23.4531 104.827 23.5414 104.95 23.6367V19.2719C104.871 19.2269 104.791 19.1853 104.71 19.1438C103.709 18.6347 102.587 18.382 101.344 18.382C99.7087 18.382 98.2497 18.7802 96.9687 19.5783C95.6895 20.3765 94.6825 21.4673 93.9513 22.8472C93.2183 24.2253 92.8535 25.787 92.8535 27.5288C92.8535 29.2497 93.2183 30.7976 93.9513 32.1775C94.6825 33.5574 95.6895 34.6447 96.9687 35.4446C98.2497 36.2427 99.6965 36.6427 101.306 36.6427C102.574 36.6427 103.716 36.3882 104.728 35.8809C105.382 35.5519 105.948 35.1381 106.429 34.6429V36.2791H111.26V18.7438H106.824Z" fill="white"/>
<path d="M126.403 27.5877L120.199 19.1074H114.49L120.596 27.6967L114.16 36.6427H119.576L126.403 27.5877Z" fill="white"/>
</svg>
